<svg xmlns="http://www.w3.org/2000/svg" width="300" height="215.5" style="enable-background:new 0 0 122.88 88.17" viewBox="0 0 300 215.46"><path fill="#32de84" d="m152.42 35.82 11.54-20a2.35 2.35 0 0 0-.84-3.2 2.32 2.32 0 0 0-3.19.85l-11.7 20.26a71.38 71.38 0 0 0-29.77-6.35 71.32 71.32 0 0 0-29.77 6.35L77 13.47a2.34 2.34 0 1 0-4.04 2.36L84.5 35.82C64.58 46.61 51.1 66.76 48.88 90.35h139.17c-2.22-23.6-15.7-43.74-35.63-54.53ZM86.5 70.8a5.83 5.83 0 1 1 0-11.66 5.83 5.83 0 0 1 0 11.66Zm63.89 0a5.83 5.83 0 1 1 0-11.66 5.83 5.83 0 0 1 0 11.66Z"/><path d="m297.15 69.3 2.85 2.07-1.24 3.61c-2.1 5.01-5 9.48-8.92 13.1-5.83 5.85-16.4 12.66-33.51 12.66h-2.8c-6.8 17.54-16.13 37.29-31.86 54.97a131.03 131.03 0 0 1-32.57 26.71 150.74 150.74 0 0 1-47.86 17.38 202.1 202.1 0 0 1-36.6 3.35c-27.12 0-51.2-5.16-65.95-14.19-13.09-8.06-23.24-21.29-30.05-39.09A141.04 141.04 0 0 1 .01 99.1a9.32 9.32 0 0 1 9.33-9.33h197.6c2.52-.14 14.48-1.13 21.86-5.3-6.13-9.74-7.94-21.14-5.01-33.25a59.27 59.27 0 0 1 7.64-17.81l2.79-4.03 4.31 2.52c.71.53 18.4 10.84 21.44 32.13 4.18-.7 8.5-1.12 12.67-1.12 16.14 0 23.67 5.72 24.5 6.4Z" style="fill:#0091e2"/></svg>
